<?xml version="1.0" encoding="utf-8" standalone="no"?>
<!DOCTYPE svg PUBLIC "-//W3C//DTD SVG 1.1//EN"
  "http://www.w3.org/Graphics/SVG/1.1/DTD/svg11.dtd">
<!-- Created with matplotlib (https://matplotlib.org/) -->
<svg height="307.039286pt" version="1.1" viewBox="0 0 496.8 307.039286" width="496.8pt" xmlns="http://www.w3.org/2000/svg" xmlns:xlink="http://www.w3.org/1999/xlink">
 <defs>
  <style type="text/css">
*{stroke-linecap:butt;stroke-linejoin:round;}
  </style>
 </defs>
 <g id="figure_1">
  <g id="patch_1">
   <path d="M 0 307.039286 
L 496.8 307.039286 
L 496.8 0 
L 0 0 
z
" style="fill:#ffffff;"/>
  </g>
  <g id="axes_1">
   <g id="patch_2">
    <path d="M 62.1 273.264964 
L 447.12 273.264964 
L 447.12 36.844714 
L 62.1 36.844714 
z
" style="fill:#ffffff;"/>
   </g>
   <g id="matplotlib.axis_1">
    <g id="xtick_1">
     <g id="line2d_1">
      <defs>
       <path d="M 0 0 
L 0 3.5 
" id="m337bd098fa" style="stroke:#808080;stroke-width:0.8;"/>
      </defs>
      <g>
       <use style="fill:#808080;stroke:#808080;stroke-width:0.8;" x="79.600909" xlink:href="#m337bd098fa" y="273.264964"/>
      </g>
     </g>
     <g id="text_1">
      <!-- $0.0$ -->
      <defs>
       <path d="M 42 31.640625 
C 42 37.75 41.90625 48.125 37.703125 56.109375 
C 34 63.109375 28.09375 65.59375 22.90625 65.59375 
C 18.09375 65.59375 12 63.40625 8.203125 56.203125 
C 4.203125 48.71875 3.796875 39.4375 3.796875 31.640625 
C 3.796875 25.953125 3.90625 17.28125 7 9.671875 
C 11.296875 -0.609375 19 -2 22.90625 -2 
C 27.5 -2 34.5 -0.109375 38.59375 9.375 
C 41.59375 16.28125 42 24.359375 42 31.640625 
z
M 22.90625 -0.40625 
C 16.5 -0.40625 12.703125 5.078125 11.296875 12.6875 
C 10.203125 18.5625 10.203125 27.15625 10.203125 32.75 
C 10.203125 40.4375 10.203125 46.828125 11.5 52.921875 
C 13.40625 61.390625 19 64 22.90625 64 
C 27 64 32.296875 61.296875 34.203125 53.125 
C 35.5 47.4375 35.59375 40.734375 35.59375 32.75 
C 35.59375 26.25 35.59375 18.265625 34.40625 12.375 
C 32.296875 1.484375 26.40625 -0.40625 22.90625 -0.40625 
z
" id="CMR17-48"/>
       <path d="M 18.40625 4.796875 
C 18.40625 7.6875 16 9.671875 13.59375 9.671875 
C 10.703125 9.671875 8.703125 7.28125 8.703125 4.890625 
C 8.703125 2 11.09375 0 13.5 0 
C 16.40625 0 18.40625 2.390625 18.40625 4.796875 
z
" id="CMMI12-58"/>
      </defs>
      <g transform="translate(74.190564 285.799766)scale(0.08 -0.08)">
       <use transform="scale(0.996264)" xlink:href="#CMR17-48"/>
       <use transform="translate(45.690477 0)scale(0.996264)" xlink:href="#CMMI12-58"/>
       <use transform="translate(72.787654 0)scale(0.996264)" xlink:href="#CMR17-48"/>
      </g>
     </g>
    </g>
    <g id="xtick_2">
     <g id="line2d_2">
      <g>
       <use style="fill:#808080;stroke:#808080;stroke-width:0.8;" x="123.364123" xlink:href="#m337bd098fa" y="273.264964"/>
      </g>
     </g>
     <g id="text_2">
      <!-- $0.5$ -->
      <defs>
       <path d="M 11.40625 57.6875 
C 12.40625 57.28125 16.5 56 20.703125 56 
C 30 56 35.09375 61.109375 38 64.0625 
C 38 64.953125 38 65.5 37.40625 65.5 
C 37.296875 65.5 37.09375 65.5 36.296875 65.046875 
C 32.796875 63.40625 28.703125 62.078125 23.703125 62.078125 
C 20.703125 62.078125 16.203125 62.484375 11.296875 64.671875 
C 10.203125 65.171875 10 65.171875 9.90625 65.171875 
C 9.40625 65.171875 9.296875 65.0625 9.296875 63.078125 
L 9.296875 34.421875 
C 9.296875 32.640625 9.296875 32.140625 10.296875 32.140625 
C 10.796875 32.140625 11 32.34375 11.5 33.03125 
C 14.703125 37.515625 19.09375 39.40625 24.09375 39.40625 
C 27.59375 39.40625 35.09375 37.21875 35.09375 20.140625 
C 35.09375 16.953125 35.09375 11.171875 32.09375 6.578125 
C 29.59375 2.484375 25.703125 0.390625 21.40625 0.390625 
C 14.796875 0.390625 8.09375 5 6.296875 12.71875 
C 6.703125 12.609375 7.5 12.421875 7.90625 12.421875 
C 9.203125 12.421875 11.703125 13.125 11.703125 16.21875 
C 11.703125 18.90625 9.796875 20 7.90625 20 
C 5.59375 20 4.09375 18.59375 4.09375 15.796875 
C 4.09375 7.09375 11 -2 21.59375 -2 
C 31.90625 -2 41.703125 6.875 41.703125 19.75 
C 41.703125 31.71875 33.90625 41 24.203125 41 
C 19.09375 41 14.796875 39.109375 11.40625 35.53125 
z
" id="CMR17-53"/>
      </defs>
      <g transform="translate(117.953778 285.799766)scale(0.08 -0.08)">
       <use transform="scale(0.996264)" xlink:href="#CMR17-48"/>
       <use transform="translate(45.690477 0)scale(0.996264)" xlink:href="#CMMI12-58"/>
       <use transform="translate(72.787654 0)scale(0.996264)" xlink:href="#CMR17-53"/>
      </g>
     </g>
    </g>
    <g id="xtick_3">
     <g id="line2d_3">
      <g>
       <use style="fill:#808080;stroke:#808080;stroke-width:0.8;" x="167.127336" xlink:href="#m337bd098fa" y="273.264964"/>
      </g>
     </g>
     <g id="text_3">
      <!-- $1.0$ -->
      <defs>
       <path d="M 26.59375 63.40625 
C 26.59375 65.5 26.5 65.5 25.09375 65.5 
C 21.203125 61.1875 15.296875 59.796875 9.703125 59.796875 
C 9.40625 59.796875 8.90625 59.796875 8.796875 59.5 
C 8.703125 59.296875 8.703125 59.09375 8.703125 57 
C 11.796875 57 17 57.59375 21 59.984375 
L 21 7.203125 
C 21 3.6875 20.796875 2.5 12.203125 2.5 
L 9.203125 2.5 
L 9.203125 0 
C 14 0 19 0 23.796875 0 
C 28.59375 0 33.59375 0 38.40625 0 
L 38.40625 2.5 
L 35.40625 2.5 
C 26.796875 2.5 26.59375 3.59375 26.59375 7.15625 
z
" id="CMR17-49"/>
      </defs>
      <g transform="translate(161.716991 285.799766)scale(0.08 -0.08)">
       <use transform="scale(0.996264)" xlink:href="#CMR17-49"/>
       <use transform="translate(45.690477 0)scale(0.996264)" xlink:href="#CMMI12-58"/>
       <use transform="translate(72.787654 0)scale(0.996264)" xlink:href="#CMR17-48"/>
      </g>
     </g>
    </g>
    <g id="xtick_4">
     <g id="line2d_4">
      <g>
       <use style="fill:#808080;stroke:#808080;stroke-width:0.8;" x="210.89055" xlink:href="#m337bd098fa" y="273.264964"/>
      </g>
     </g>
     <g id="text_4">
      <!-- $1.5$ -->
      <g transform="translate(205.480205 285.799766)scale(0.08 -0.08)">
       <use transform="scale(0.996264)" xlink:href="#CMR17-49"/>
       <use transform="translate(45.690477 0)scale(0.996264)" xlink:href="#CMMI12-58"/>
       <use transform="translate(72.787654 0)scale(0.996264)" xlink:href="#CMR17-53"/>
      </g>
     </g>
    </g>
    <g id="xtick_5">
     <g id="line2d_5">
      <g>
       <use style="fill:#808080;stroke:#808080;stroke-width:0.8;" x="254.653763" xlink:href="#m337bd098fa" y="273.264964"/>
      </g>
     </g>
     <g id="text_5">
      <!-- $2.0$ -->
      <defs>
       <path d="M 41.703125 15.453125 
L 39.90625 15.453125 
C 38.90625 8.375 38.09375 7.171875 37.703125 6.5625 
C 37.203125 5.765625 30 5.765625 28.59375 5.765625 
L 9.40625 5.765625 
C 13 9.671875 20 16.75 28.5 24.953125 
C 34.59375 30.734375 41.703125 37.53125 41.703125 47.421875 
C 41.703125 59.21875 32.296875 66 21.796875 66 
C 10.796875 66 4.09375 56.3125 4.09375 47.34375 
C 4.09375 43.4375 7 42.9375 8.203125 42.9375 
C 9.203125 42.9375 12.203125 43.546875 12.203125 47.03125 
C 12.203125 50.109375 9.59375 51 8.203125 51 
C 7.59375 51 7 50.90625 6.59375 50.703125 
C 8.5 59.21875 14.296875 63.40625 20.40625 63.40625 
C 29.09375 63.40625 34.796875 56.515625 34.796875 47.421875 
C 34.796875 38.734375 29.703125 31.25 24 24.75 
L 4.09375 2.28125 
L 4.09375 0 
L 39.296875 0 
z
" id="CMR17-50"/>
      </defs>
      <g transform="translate(249.243418 285.799766)scale(0.08 -0.08)">
       <use transform="scale(0.996264)" xlink:href="#CMR17-50"/>
       <use transform="translate(45.690477 0)scale(0.996264)" xlink:href="#CMMI12-58"/>
       <use transform="translate(72.787654 0)scale(0.996264)" xlink:href="#CMR17-48"/>
      </g>
     </g>
    </g>
    <g id="xtick_6">
     <g id="line2d_6">
      <g>
       <use style="fill:#808080;stroke:#808080;stroke-width:0.8;" x="298.416977" xlink:href="#m337bd098fa" y="273.264964"/>
      </g>
     </g>
     <g id="text_6">
      <!-- $2.5$ -->
      <g transform="translate(293.006632 285.799766)scale(0.08 -0.08)">
       <use transform="scale(0.996264)" xlink:href="#CMR17-50"/>
       <use transform="translate(45.690477 0)scale(0.996264)" xlink:href="#CMMI12-58"/>
       <use transform="translate(72.787654 0)scale(0.996264)" xlink:href="#CMR17-53"/>
      </g>
     </g>
    </g>
    <g id="xtick_7">
     <g id="line2d_7">
      <g>
       <use style="fill:#808080;stroke:#808080;stroke-width:0.8;" x="342.18019" xlink:href="#m337bd098fa" y="273.264964"/>
      </g>
     </g>
     <g id="text_7">
      <!-- $3.0$ -->
      <defs>
       <path d="M 22.09375 33.703125 
C 31 33.703125 34.90625 25.96875 34.90625 17.03125 
C 34.90625 5 28.5 0.390625 22.703125 0.390625 
C 17.40625 0.390625 8.796875 3.03125 6.09375 10.828125 
C 6.59375 10.625 7.09375 10.625 7.59375 10.625 
C 10 10.625 11.796875 12.21875 11.796875 14.8125 
C 11.796875 17.703125 9.59375 19 7.59375 19 
C 5.90625 19 3.296875 18.203125 3.296875 14.46875 
C 3.296875 5.234375 12.296875 -2 22.90625 -2 
C 34 -2 42.5 6.71875 42.5 16.953125 
C 42.5 26.671875 34.5 33.703125 25 34.796875 
C 32.59375 36.375 39.90625 43.0625 39.90625 52.015625 
C 39.90625 59.6875 32 65.296875 23 65.296875 
C 13.90625 65.296875 5.90625 59.828125 5.90625 52.015625 
C 5.90625 48.59375 8.5 48 9.796875 48 
C 11.90625 48 13.703125 49.296875 13.703125 51.890625 
C 13.703125 54.46875 11.90625 55.765625 9.796875 55.765625 
C 9.40625 55.765625 8.90625 55.765625 8.5 55.578125 
C 11.40625 61.859375 19.296875 63 22.796875 63 
C 26.296875 63 32.90625 61.328125 32.90625 51.875 
C 32.90625 49.109375 32.5 44.1875 29.09375 39.84375 
C 26.09375 36 22.703125 36 19.40625 35.6875 
C 18.90625 35.6875 16.59375 35.453125 16.203125 35.453125 
C 15.5 35.359375 15.09375 35.265625 15.09375 34.5 
C 15.09375 33.796875 15.203125 33.703125 17.203125 33.703125 
z
" id="CMR17-51"/>
      </defs>
      <g transform="translate(336.769846 285.799766)scale(0.08 -0.08)">
       <use transform="scale(0.996264)" xlink:href="#CMR17-51"/>
       <use transform="translate(45.690477 0)scale(0.996264)" xlink:href="#CMMI12-58"/>
       <use transform="translate(72.787654 0)scale(0.996264)" xlink:href="#CMR17-48"/>
      </g>
     </g>
    </g>
    <g id="xtick_8">
     <g id="line2d_8">
      <g>
       <use style="fill:#808080;stroke:#808080;stroke-width:0.8;" x="385.943404" xlink:href="#m337bd098fa" y="273.264964"/>
      </g>
     </g>
     <g id="text_8">
      <!-- $3.5$ -->
      <g transform="translate(380.533059 285.799766)scale(0.08 -0.08)">
       <use transform="scale(0.996264)" xlink:href="#CMR17-51"/>
       <use transform="translate(45.690477 0)scale(0.996264)" xlink:href="#CMMI12-58"/>
       <use transform="translate(72.787654 0)scale(0.996264)" xlink:href="#CMR17-53"/>
      </g>
     </g>
    </g>
    <g id="xtick_9">
     <g id="line2d_9">
      <g>
       <use style="fill:#808080;stroke:#808080;stroke-width:0.8;" x="429.706617" xlink:href="#m337bd098fa" y="273.264964"/>
      </g>
     </g>
     <g id="text_9">
      <!-- $4.0$ -->
      <defs>
       <path d="M 33.59375 64.40625 
C 33.59375 66.5 33.5 66.5 31.703125 66.5 
L 2 19.59375 
L 2 17 
L 27.796875 17 
L 27.796875 7.140625 
C 27.796875 3.5 27.59375 2.5 20.59375 2.5 
L 18.703125 2.5 
L 18.703125 0 
C 21.90625 0 27.296875 0 30.703125 0 
C 34.09375 0 39.5 0 42.703125 0 
L 42.703125 2.5 
L 40.796875 2.5 
C 33.796875 2.5 33.59375 3.5 33.59375 7.140625 
L 33.59375 17 
L 43.796875 17 
L 43.796875 19.59375 
L 33.59375 19.59375 
z
M 28.09375 57.859375 
L 28.09375 19.59375 
L 4 19.59375 
z
" id="CMR17-52"/>
      </defs>
      <g transform="translate(424.296273 285.799766)scale(0.08 -0.08)">
       <use transform="scale(0.996264)" xlink:href="#CMR17-52"/>
       <use transform="translate(45.690477 0)scale(0.996264)" xlink:href="#CMMI12-58"/>
       <use transform="translate(72.787654 0)scale(0.996264)" xlink:href="#CMR17-48"/>
      </g>
     </g>
    </g>
    <g id="text_10">
     <!-- $\times10^{-10}$ -->
     <defs>
      <path d="M 38.90625 27.890625 
L 18.90625 47.796875 
C 17.703125 49 17.5 49.1875 16.703125 49.1875 
C 15.703125 49.1875 14.703125 48.296875 14.703125 47.1875 
C 14.703125 46.5 14.90625 46.296875 16 45.1875 
L 36 25.09375 
L 16 5 
C 14.90625 3.890625 14.703125 3.6875 14.703125 3 
C 14.703125 1.890625 15.703125 1 16.703125 1 
C 17.5 1 17.703125 1.1875 18.90625 2.390625 
L 38.796875 22.296875 
L 59.5 1.59375 
C 59.703125 1.5 60.40625 1 61 1 
C 62.203125 1 63 1.890625 63 3 
C 63 3.1875 63 3.59375 62.703125 4.09375 
C 62.59375 4.296875 46.703125 20 41.703125 25.09375 
L 60 43.390625 
C 60.5 44 62 45.296875 62.5 45.890625 
C 62.59375 46.09375 63 46.5 63 47.1875 
C 63 48.296875 62.203125 49.1875 61 49.1875 
C 60.203125 49.1875 59.796875 48.796875 58.703125 47.6875 
z
" id="CMSY10-2"/>
      <path d="M 65.90625 23 
C 67.59375 23 69.40625 23 69.40625 25 
C 69.40625 27 67.59375 27 65.90625 27 
L 11.796875 27 
C 10.09375 27 8.296875 27 8.296875 25 
C 8.296875 23 10.09375 23 11.796875 23 
z
" id="CMSY10-0"/>
     </defs>
     <g transform="translate(419.003163 296.29502)scale(0.08 -0.08)">
      <use transform="scale(0.996264)" xlink:href="#CMSY10-2"/>
      <use transform="translate(77.487468 0)scale(0.996264)" xlink:href="#CMR17-49"/>
      <use transform="translate(123.177945 0)scale(0.996264)" xlink:href="#CMR17-48"/>
      <use transform="translate(168.868422 36.153639)scale(0.697382)" xlink:href="#CMSY10-0"/>
      <use transform="translate(223.109415 36.153639)scale(0.697382)" xlink:href="#CMR17-49"/>
      <use transform="translate(255.092597 36.153639)scale(0.697382)" xlink:href="#CMR17-48"/>
     </g>
    </g>
   </g>
   <g id="matplotlib.axis_2">
    <g id="ytick_1">
     <g id="line2d_10">
      <defs>
       <path d="M 0 0 
L -3.5 0 
" id="mb2185a0437" style="stroke:#808080;stroke-width:0.8;"/>
      </defs>
      <g>
       <use style="fill:#808080;stroke:#808080;stroke-width:0.8;" x="62.1" xlink:href="#mb2185a0437" y="262.518589"/>
      </g>
     </g>
     <g id="text_11">
      <!-- $0.0$ -->
      <g transform="translate(44.27931 265.28599)scale(0.08 -0.08)">
       <use transform="scale(0.996264)" xlink:href="#CMR17-48"/>
       <use transform="translate(45.690477 0)scale(0.996264)" xlink:href="#CMMI12-58"/>
       <use transform="translate(72.787654 0)scale(0.996264)" xlink:href="#CMR17-48"/>
      </g>
     </g>
    </g>
    <g id="ytick_2">
     <g id="line2d_11">
      <g>
       <use style="fill:#808080;stroke:#808080;stroke-width:0.8;" x="62.1" xlink:href="#mb2185a0437" y="235.692989"/>
      </g>
     </g>
     <g id="text_12">
      <!-- $2.5$ -->
      <g transform="translate(44.27931 238.46039)scale(0.08 -0.08)">
       <use transform="scale(0.996264)" xlink:href="#CMR17-50"/>
       <use transform="translate(45.690477 0)scale(0.996264)" xlink:href="#CMMI12-58"/>
       <use transform="translate(72.787654 0)scale(0.996264)" xlink:href="#CMR17-53"/>
      </g>
     </g>
    </g>
    <g id="ytick_3">
     <g id="line2d_12">
      <g>
       <use style="fill:#808080;stroke:#808080;stroke-width:0.8;" x="62.1" xlink:href="#mb2185a0437" y="208.867389"/>
      </g>
     </g>
     <g id="text_13">
      <!-- $5.0$ -->
      <g transform="translate(44.27931 211.63479)scale(0.08 -0.08)">
       <use transform="scale(0.996264)" xlink:href="#CMR17-53"/>
       <use transform="translate(45.690477 0)scale(0.996264)" xlink:href="#CMMI12-58"/>
       <use transform="translate(72.787654 0)scale(0.996264)" xlink:href="#CMR17-48"/>
      </g>
     </g>
    </g>
    <g id="ytick_4">
     <g id="line2d_13">
      <g>
       <use style="fill:#808080;stroke:#808080;stroke-width:0.8;" x="62.1" xlink:href="#mb2185a0437" y="182.041788"/>
      </g>
     </g>
     <g id="text_14">
      <!-- $7.5$ -->
      <defs>
       <path d="M 45.09375 61.578125 
L 45.09375 63.765625 
L 21.59375 63.765625 
C 9.90625 63.765625 9.703125 65.078125 9.296875 67 
L 7.5 67 
L 4.59375 48.34375 
L 6.40625 48.34375 
C 6.703125 50.234375 7.40625 55.3125 8.59375 57.203125 
C 9.203125 58 16.59375 58 18.296875 58 
L 40.296875 58 
L 29.203125 41.578125 
C 21.796875 30.53125 16.703125 15.609375 16.703125 2.578125 
C 16.703125 1.390625 16.703125 -2 20.296875 -2 
C 23.90625 -2 23.90625 1.390625 23.90625 2.671875 
L 23.90625 7.265625 
C 23.90625 23.5625 26.703125 34.3125 31.296875 41.1875 
z
" id="CMR17-55"/>
      </defs>
      <g transform="translate(44.27931 184.809189)scale(0.08 -0.08)">
       <use transform="scale(0.996264)" xlink:href="#CMR17-55"/>
       <use transform="translate(45.690477 0)scale(0.996264)" xlink:href="#CMMI12-58"/>
       <use transform="translate(72.787654 0)scale(0.996264)" xlink:href="#CMR17-53"/>
      </g>
     </g>
    </g>
    <g id="ytick_5">
     <g id="line2d_14">
      <g>
       <use style="fill:#808080;stroke:#808080;stroke-width:0.8;" x="62.1" xlink:href="#mb2185a0437" y="155.216188"/>
      </g>
     </g>
     <g id="text_15">
      <!-- $10.0$ -->
      <g transform="translate(40.045128 157.983589)scale(0.08 -0.08)">
       <use transform="scale(0.996264)" xlink:href="#CMR17-49"/>
       <use transform="translate(45.690477 0)scale(0.996264)" xlink:href="#CMR17-48"/>
       <use transform="translate(91.380954 0)scale(0.996264)" xlink:href="#CMMI12-58"/>
       <use transform="translate(118.478131 0)scale(0.996264)" xlink:href="#CMR17-48"/>
      </g>
     </g>
    </g>
    <g id="ytick_6">
     <g id="line2d_15">
      <g>
       <use style="fill:#808080;stroke:#808080;stroke-width:0.8;" x="62.1" xlink:href="#mb2185a0437" y="128.390588"/>
      </g>
     </g>
     <g id="text_16">
      <!-- $12.5$ -->
      <g transform="translate(40.045128 131.157989)scale(0.08 -0.08)">
       <use transform="scale(0.996264)" xlink:href="#CMR17-49"/>
       <use transform="translate(45.690477 0)scale(0.996264)" xlink:href="#CMR17-50"/>
       <use transform="translate(91.380954 0)scale(0.996264)" xlink:href="#CMMI12-58"/>
       <use transform="translate(118.478131 0)scale(0.996264)" xlink:href="#CMR17-53"/>
      </g>
     </g>
    </g>
    <g id="ytick_7">
     <g id="line2d_16">
      <g>
       <use style="fill:#808080;stroke:#808080;stroke-width:0.8;" x="62.1" xlink:href="#mb2185a0437" y="101.564988"/>
      </g>
     </g>
     <g id="text_17">
      <!-- $15.0$ -->
      <g transform="translate(40.045128 104.332389)scale(0.08 -0.08)">
       <use transform="scale(0.996264)" xlink:href="#CMR17-49"/>
       <use transform="translate(45.690477 0)scale(0.996264)" xlink:href="#CMR17-53"/>
       <use transform="translate(91.380954 0)scale(0.996264)" xlink:href="#CMMI12-58"/>
       <use transform="translate(118.478131 0)scale(0.996264)" xlink:href="#CMR17-48"/>
      </g>
     </g>
    </g>
    <g id="ytick_8">
     <g id="line2d_17">
      <g>
       <use style="fill:#808080;stroke:#808080;stroke-width:0.8;" x="62.1" xlink:href="#mb2185a0437" y="74.739387"/>
      </g>
     </g>
     <g id="text_18">
      <!-- $17.5$ -->
      <g transform="translate(40.045128 77.506788)scale(0.08 -0.08)">
       <use transform="scale(0.996264)" xlink:href="#CMR17-49"/>
       <use transform="translate(45.690477 0)scale(0.996264)" xlink:href="#CMR17-55"/>
       <use transform="translate(91.380954 0)scale(0.996264)" xlink:href="#CMMI12-58"/>
       <use transform="translate(118.478131 0)scale(0.996264)" xlink:href="#CMR17-53"/>
      </g>
     </g>
    </g>
    <g id="ytick_9">
     <g id="line2d_18">
      <g>
       <use style="fill:#808080;stroke:#808080;stroke-width:0.8;" x="62.1" xlink:href="#mb2185a0437" y="47.913787"/>
      </g>
     </g>
     <g id="text_19">
      <!-- $20.0$ -->
      <g transform="translate(40.045128 50.681188)scale(0.08 -0.08)">
       <use transform="scale(0.996264)" xlink:href="#CMR17-50"/>
       <use transform="translate(45.690477 0)scale(0.996264)" xlink:href="#CMR17-48"/>
       <use transform="translate(91.380954 0)scale(0.996264)" xlink:href="#CMMI12-58"/>
       <use transform="translate(118.478131 0)scale(0.996264)" xlink:href="#CMR17-48"/>
      </g>
     </g>
    </g>
   </g>
   <g id="line2d_19">
    <path clip-path="url(#p75121bc452)" d="M 114.61148 273.264964 
L 114.61148 36.844714 
" style="fill:none;stroke:#1f77b4;stroke-linecap:square;stroke-width:1.5;"/>
   </g>
   <g id="line2d_20">
    <path clip-path="url(#p75121bc452)" d="M 208.264757 273.264964 
L 208.264757 36.844714 
" style="fill:none;stroke:#1f77b4;stroke-linecap:square;stroke-width:1.5;"/>
   </g>
   <g id="line2d_21">
    <path clip-path="url(#p75121bc452)" d="M 224.894778 273.264964 
L 224.894778 36.844714 
" style="fill:none;stroke:#1f77b4;stroke-linecap:square;stroke-width:1.5;"/>
   </g>
   <g id="line2d_22">
    <path clip-path="url(#p75121bc452)" d="M 286.163277 273.264964 
L 286.163277 36.844714 
" style="fill:none;stroke:#1f77b4;stroke-linecap:square;stroke-width:1.5;"/>
   </g>
   <g id="line2d_23">
    <path clip-path="url(#p75121bc452)" d="M 302.793298 273.264964 
L 302.793298 36.844714 
" style="fill:none;stroke:#1f77b4;stroke-linecap:square;stroke-width:1.5;"/>
   </g>
   <g id="line2d_24">
    <path clip-path="url(#p75121bc452)" d="M 319.423319 273.264964 
L 319.423319 36.844714 
" style="fill:none;stroke:#1f77b4;stroke-linecap:square;stroke-width:1.5;"/>
   </g>
   <g id="line2d_25">
    <path clip-path="url(#p75121bc452)" d="M 79.600909 262.518589 
L 80.038541 262.439399 
L 80.388647 262.070998 
L 83.189493 257.446438 
L 84.589915 255.092936 
L 85.027548 254.891551 
L 88.441078 254.484472 
L 89.578922 254.322806 
L 92.204715 253.688142 
L 93.78019 253.570669 
L 94.918034 253.834884 
L 96.668562 254.15402 
L 103.670677 254.841286 
L 105.421205 254.786742 
L 108.48463 254.674828 
L 110.060106 254.593347 
L 112.16074 254.257299 
L 113.998795 253.955612 
L 115.574271 253.978702 
L 127.040233 254.597138 
L 133.429662 254.410402 
L 135.792875 254.191937 
L 138.943827 254.201169 
L 144.107886 254.36511 
L 147.258837 254.472535 
L 151.635159 254.604011 
L 153.823319 254.548498 
L 158.899852 254.299596 
L 165.114228 254.32746 
L 170.103235 254.417731 
L 176.055032 254.490719 
L 183.582304 254.30539 
L 190.846998 254.367321 
L 194.698161 254.326798 
L 195.398372 254.041495 
L 196.098584 253.463207 
L 196.798795 252.594044 
L 197.41148 251.46582 
L 198.724376 248.368916 
L 199.162008 246.967055 
L 199.512114 245.227893 
L 199.86222 242.402676 
L 200.212326 237.610155 
L 200.562431 229.52715 
L 201.000063 212.625537 
L 201.525222 191.358046 
L 201.700275 189.034688 
L 201.787801 188.87726 
L 201.962854 189.908353 
L 202.400486 193.245246 
L 202.488013 193.231301 
L 202.663066 192.425635 
L 203.275751 188.241962 
L 203.450803 188.165573 
L 203.713383 188.74322 
L 203.975962 189.24494 
L 204.151015 189.20691 
L 204.413594 188.619057 
L 204.851226 187.520895 
L 205.026279 187.404601 
L 205.288858 187.565569 
L 205.72649 187.911747 
L 205.98907 187.791737 
L 206.776808 187.106079 
L 207.21444 187.246004 
L 207.652072 187.311859 
L 209.052495 187.063254 
L 209.752706 187.040753 
L 210.803023 186.977388 
L 212.816131 186.926355 
L 214.741712 186.942245 
L 218.680402 187.721175 
L 219.643192 188.050035 
L 219.993298 187.81687 
L 220.518457 187.0441 
L 221.743827 185.084454 
L 222.006406 185.032398 
L 222.356512 185.24879 
L 223.319302 186.052415 
L 223.931987 186.170794 
L 224.719725 186.079355 
L 225.419937 186.057388 
L 227.433044 186.392896 
L 228.833467 186.481153 
L 231.196681 186.691849 
L 236.710846 186.854874 
L 237.673636 186.946133 
L 238.373848 187.205929 
L 239.774271 187.85309 
L 240.211903 187.904637 
L 240.649535 187.69582 
L 241.962431 186.773254 
L 242.837696 186.600796 
L 245.988647 186.448529 
L 255.791607 186.828074 
L 258.15482 186.706255 
L 259.030085 186.991927 
L 260.342981 187.461241 
L 261.130719 187.460056 
L 263.318879 187.092872 
L 265.682093 186.77907 
L 269.008097 186.673905 
L 273.822051 186.558313 
L 274.434736 186.23496 
L 275.134947 185.592193 
L 275.747632 184.765762 
L 276.360317 183.502747 
L 277.585687 180.217602 
L 278.023319 178.531895 
L 278.373425 176.425533 
L 278.723531 172.96378 
L 279.073636 167.034932 
L 279.423742 157.054637 
L 280.474059 121.38346 
L 280.649112 122.366653 
L 281.086744 126.081857 
L 281.174271 126.1471 
L 281.349323 125.434223 
L 282.049535 120.869868 
L 282.137061 120.881959 
L 282.312114 121.233725 
L 282.66222 122.103143 
L 282.837273 122.132803 
L 283.012326 121.824157 
L 283.625011 120.27031 
L 283.800063 120.217685 
L 284.062643 120.430511 
L 284.412748 120.697661 
L 284.675328 120.58678 
L 285.550592 119.796855 
L 286.600909 119.842797 
L 287.301121 119.577476 
L 290.364545 119.361236 
L 291.414863 119.094708 
L 292.027548 118.708271 
L 292.640233 118.029773 
L 293.165391 117.1048 
L 295.090973 112.680361 
L 295.441078 111.374347 
L 295.791184 109.247813 
L 296.14129 105.667532 
L 296.491395 99.607049 
L 296.841501 89.708221 
L 297.891818 54.907206 
L 297.979345 55.108891 
L 298.59203 59.00944 
L 298.767082 58.258115 
L 299.467294 53.36827 
L 299.642347 53.247249 
L 300.079979 53.421191 
L 300.255032 53.105017 
L 301.130296 50.768246 
L 301.305349 50.922358 
L 302.00556 51.899652 
L 302.26814 51.829064 
L 302.880825 51.507924 
L 304.106195 51.483928 
L 304.543827 51.378289 
L 304.981459 51.515767 
L 305.594144 51.718131 
L 306.381882 51.64163 
L 307.519725 51.661737 
L 311.80852 51.952022 
L 313.734101 52.315241 
L 314.784419 52.660035 
L 315.922262 53.116096 
L 316.272368 52.880165 
L 316.71 52.190256 
L 317.585264 50.591136 
L 317.847844 50.545493 
L 318.110423 50.785782 
L 318.985687 51.857493 
L 319.248266 51.819355 
L 319.685899 51.471355 
L 320.473636 50.845883 
L 320.998795 50.70143 
L 321.523953 50.793272 
L 322.574271 51.039408 
L 324.674905 51.114094 
L 326.337907 51.389703 
L 330.276596 51.723595 
L 332.727336 51.821135 
L 333.777653 51.87608 
L 334.477865 52.141033 
L 336.05334 52.847344 
L 336.403446 52.775386 
L 337.803869 52.119351 
L 339.291818 52.153384 
L 340.254609 51.852623 
L 341.2174 51.653996 
L 344.805983 51.424769 
L 348.832199 51.67298 
L 352.070677 51.8429 
L 354.346364 51.767817 
L 355.221628 52.064621 
L 356.096892 52.310095 
L 357.409789 52.310654 
L 360.56074 52.226834 
L 365.899852 51.736648 
L 368.963277 51.775345 
L 372.901966 51.864674 
L 374.477442 51.761059 
L 381.742135 52.26963 
L 385.330719 52.036881 
L 389.269408 51.893368 
L 400.647844 52.167112 
L 403.798795 52.22975 
L 408.875328 52.031071 
L 411.151015 52.031647 
L 413.95186 52.058749 
L 418.940867 51.993085 
L 428.481247 52.155913 
L 429.619091 52.10339 
L 429.619091 52.10339 
" style="fill:none;stroke:#1f77b4;stroke-linecap:square;stroke-width:1.5;"/>
   </g>
   <g id="line2d_26">
    <path clip-path="url(#p75121bc452)" d="M 79.600909 262.518589 
L 80.038541 262.439399 
L 80.388647 262.070998 
L 83.189493 257.446438 
L 84.589915 255.092936 
L 85.027548 254.891551 
L 88.441078 254.484472 
L 89.578922 254.322806 
L 92.204715 253.688142 
L 93.78019 253.570669 
L 94.918034 253.834884 
L 96.668562 254.15402 
L 103.670677 254.841286 
L 105.421205 254.786742 
L 108.48463 254.674828 
L 110.060106 254.593347 
L 112.16074 254.257299 
L 113.998795 253.955612 
L 115.574271 253.978702 
L 127.040233 254.597138 
L 133.429662 254.410402 
L 135.792875 254.191937 
L 138.943827 254.201169 
L 144.107886 254.36511 
L 147.258837 254.472535 
L 151.635159 254.604011 
L 153.823319 254.548498 
L 158.899852 254.299596 
L 165.114228 254.32746 
L 170.103235 254.417731 
L 176.055032 254.490719 
L 183.582304 254.30539 
L 190.846998 254.367321 
L 194.698161 254.326798 
L 195.398372 254.041495 
L 196.098584 253.463207 
L 196.798795 252.594044 
L 197.41148 251.46582 
L 198.724376 248.368916 
L 199.162008 246.967055 
L 199.512114 245.227893 
L 199.86222 242.402676 
L 200.212326 237.610155 
L 200.562431 229.52715 
L 201.000063 212.625537 
L 201.525222 191.358046 
L 201.700275 189.034688 
L 201.787801 188.87726 
L 201.962854 189.908353 
L 202.400486 193.245246 
L 202.488013 193.231301 
L 202.663066 192.425635 
L 203.275751 188.241962 
L 203.450803 188.165573 
L 203.713383 188.74322 
L 203.975962 189.24494 
L 204.151015 189.20691 
L 204.413594 188.619057 
L 204.851226 187.520895 
L 205.026279 187.404601 
L 205.288858 187.565569 
L 205.72649 187.911747 
L 205.98907 187.791737 
L 206.776808 187.106079 
L 207.21444 187.246004 
L 207.652072 187.311859 
L 209.052495 187.063254 
L 209.752706 187.040753 
L 210.803023 186.977388 
L 212.816131 186.926355 
L 214.741712 186.942245 
L 218.680402 187.721175 
L 219.643192 188.050035 
L 219.993298 187.81687 
L 220.518457 187.0441 
L 221.743827 185.084454 
L 222.006406 185.032398 
L 222.356512 185.24879 
L 223.319302 186.052415 
L 223.931987 186.170794 
L 224.719725 186.079355 
L 225.419937 186.057388 
L 227.433044 186.392896 
L 228.833467 186.481153 
L 231.196681 186.691849 
L 236.710846 186.854874 
L 237.673636 186.946133 
L 238.373848 187.205929 
L 239.774271 187.85309 
L 240.211903 187.904637 
L 240.649535 187.69582 
L 241.962431 186.773254 
L 242.837696 186.600796 
L 245.988647 186.448529 
L 255.791607 186.828074 
L 258.15482 186.706255 
L 259.030085 186.991927 
L 260.342981 187.461241 
L 261.130719 187.460056 
L 263.318879 187.092872 
L 265.682093 186.77907 
L 269.008097 186.673905 
L 273.822051 186.558313 
L 274.434736 186.23496 
L 275.134947 185.592193 
L 275.747632 184.765762 
L 276.360317 183.502747 
L 277.585687 180.217602 
L 278.023319 178.531895 
L 278.373425 176.425533 
L 278.723531 172.96378 
L 279.073636 167.034932 
L 279.423742 157.054637 
L 280.474059 121.38346 
L 280.649112 122.366653 
L 281.086744 126.081857 
L 281.174271 126.1471 
L 281.349323 125.434223 
L 282.049535 120.869868 
L 282.137061 120.881959 
L 282.312114 121.233725 
L 282.66222 122.103143 
L 282.837273 122.132803 
L 283.012326 121.824157 
L 283.625011 120.27031 
L 283.800063 120.217685 
L 284.062643 120.430511 
L 284.412748 120.697661 
L 284.675328 120.58678 
L 285.550592 119.796855 
L 286.600909 119.842797 
L 287.301121 119.577476 
L 290.364545 119.361236 
L 291.414863 119.094708 
L 292.027548 118.708271 
L 292.640233 118.029773 
L 293.165391 117.1048 
L 295.090973 112.680361 
L 295.441078 111.374347 
L 295.791184 109.247813 
L 296.14129 105.667532 
L 296.491395 99.607049 
L 296.841501 89.708221 
L 297.891818 54.907206 
L 297.979345 55.108891 
L 298.59203 59.00944 
L 298.767082 58.258115 
L 299.467294 53.36827 
L 299.642347 53.247249 
L 300.079979 53.421191 
L 300.255032 53.105017 
L 301.130296 50.768246 
L 301.305349 50.922358 
L 302.00556 51.899652 
L 302.26814 51.829064 
L 302.880825 51.507924 
L 304.106195 51.483928 
L 304.543827 51.378289 
L 304.981459 51.515767 
L 305.594144 51.718131 
L 306.381882 51.64163 
L 307.519725 51.661737 
L 311.80852 51.952022 
L 313.734101 52.315241 
L 314.784419 52.660035 
L 315.922262 53.116096 
L 316.272368 52.880165 
L 316.71 52.190256 
L 317.585264 50.591136 
L 317.847844 50.545493 
L 318.110423 50.785782 
L 318.985687 51.857493 
L 319.248266 51.819355 
L 319.685899 51.471355 
L 320.473636 50.845883 
L 320.998795 50.70143 
L 321.523953 50.793272 
L 322.574271 51.039408 
L 324.674905 51.114094 
L 326.337907 51.389703 
L 330.276596 51.723595 
L 332.727336 51.821135 
L 333.777653 51.87608 
L 334.477865 52.141033 
L 336.05334 52.847344 
L 336.403446 52.775386 
L 337.803869 52.119351 
L 339.291818 52.153384 
L 340.254609 51.852623 
L 341.2174 51.653996 
L 344.805983 51.424769 
L 348.832199 51.67298 
L 352.070677 51.8429 
L 354.346364 51.767817 
L 355.221628 52.064621 
L 356.096892 52.310095 
L 357.409789 52.310654 
L 360.56074 52.226834 
L 365.899852 51.736648 
L 368.963277 51.775345 
L 372.901966 51.864674 
L 374.477442 51.761059 
L 381.742135 52.26963 
L 385.330719 52.036881 
L 389.269408 51.893368 
L 400.647844 52.167112 
L 403.798795 52.22975 
L 408.875328 52.031071 
L 411.151015 52.031647 
L 413.95186 52.058749 
L 418.940867 51.993085 
L 428.481247 52.155913 
L 429.619091 52.10339 
L 429.619091 52.10339 
" style="fill:none;stroke:#ff7f0e;stroke-linecap:square;stroke-width:1.5;"/>
   </g>
   <g id="line2d_27">
    <path clip-path="url(#p75121bc452)" d="M 79.600909 262.518589 
L 80.038541 262.443544 
L 80.301121 262.192068 
L 80.738753 261.351 
L 81.52649 259.785431 
L 82.401755 258.194268 
L 84.764968 253.116308 
L 85.115074 252.899126 
L 87.740867 252.370542 
L 89.666448 252.161618 
L 90.979345 251.79269 
L 92.292241 251.733587 
L 93.605137 251.657027 
L 94.305349 251.798698 
L 95.530719 252.148335 
L 99.206829 252.449663 
L 100.782304 252.71156 
L 103.145518 252.791083 
L 110.497738 252.055559 
L 112.773425 252.035356 
L 122.051226 252.523371 
L 131.591607 252.17199 
L 141.919725 252.366954 
L 149.709577 252.208062 
L 181.831776 252.284558 
L 192.334947 252.063763 
L 192.947632 251.806525 
L 193.385264 251.382199 
L 193.73537 250.717105 
L 194.085476 249.483701 
L 194.435581 247.275031 
L 194.785687 243.613023 
L 195.310846 235.152913 
L 196.098584 218.267143 
L 196.973848 198.459346 
L 197.148901 197.519243 
L 197.236427 197.541868 
L 197.41148 198.245419 
L 197.761586 199.957521 
L 197.849112 200.051252 
L 197.936638 199.944473 
L 198.111691 199.165295 
L 198.811903 194.757192 
L 198.986956 194.7203 
L 199.512114 195.44611 
L 199.687167 195.084612 
L 199.949746 193.687915 
L 200.825011 188.061849 
L 201.08759 187.758099 
L 201.350169 187.99947 
L 201.612748 188.261197 
L 201.787801 188.184323 
L 202.050381 187.518109 
L 202.838118 184.799259 
L 203.013171 184.859818 
L 203.275751 185.3842 
L 203.625856 186.107868 
L 203.800909 186.174393 
L 203.975962 185.98385 
L 204.851226 184.443417 
L 205.113805 184.70078 
L 205.638964 185.339572 
L 205.901543 185.287727 
L 206.776808 184.695597 
L 207.827125 184.965011 
L 208.527336 184.742212 
L 210.015285 184.788474 
L 210.803023 184.736259 
L 211.415708 184.623806 
L 211.940867 184.272099 
L 212.553552 183.547312 
L 213.166237 182.883544 
L 213.516342 182.776635 
L 213.778922 182.915432 
L 214.041501 183.306157 
L 215.266871 185.688161 
L 216.229662 186.097092 
L 216.667294 186.244324 
L 217.0174 186.086085 
L 217.630085 185.735176 
L 219.905772 185.585539 
L 220.343404 185.497516 
L 221.218668 185.205901 
L 222.093932 185.069829 
L 223.056723 184.787893 
L 224.719725 184.766189 
L 225.507463 184.795268 
L 226.470254 184.771351 
L 227.520571 184.798007 
L 229.00852 184.748559 
L 230.058837 184.632872 
L 232.246998 184.164411 
L 232.859683 184.369647 
L 235.222896 185.407379 
L 236.185687 185.429515 
L 242.225011 184.948446 
L 244.238118 184.8435 
L 251.940444 184.664528 
L 254.828816 185.135204 
L 256.754397 185.093583 
L 261.83093 184.927338 
L 271.196258 184.555739 
L 271.808943 184.311341 
L 272.246575 183.853939 
L 272.596681 183.096351 
L 272.946786 181.662387 
L 273.296892 179.094266 
L 273.734524 173.65619 
L 274.434736 160.899779 
L 275.134947 144.961315 
L 275.747632 131.52821 
L 275.922685 130.224103 
L 276.010211 130.090308 
L 276.185264 130.58851 
L 276.622896 132.565231 
L 276.710423 132.558087 
L 276.885476 131.962274 
L 277.673214 127.269016 
L 277.848266 127.319137 
L 278.285899 127.901097 
L 278.460951 127.60735 
L 278.723531 126.283632 
L 279.598795 120.457603 
L 279.773848 120.190474 
L 279.948901 120.257858 
L 280.474059 120.810905 
L 280.649112 120.563615 
L 280.911691 119.639322 
L 281.43685 117.563042 
L 281.611903 117.365495 
L 281.786956 117.492504 
L 282.574693 118.75385 
L 282.837273 118.311704 
L 283.362431 117.13051 
L 283.537484 117.037443 
L 283.712537 117.136723 
L 284.500275 117.915368 
L 284.762854 117.726609 
L 285.288013 117.26292 
L 285.550592 117.277534 
L 286.33833 117.57832 
L 286.863488 117.327981 
L 287.301121 117.21424 
L 288.52649 117.198832 
L 289.401755 116.680591 
L 289.75186 116.273844 
L 290.101966 115.483176 
L 290.452072 114.038347 
L 290.802178 111.648493 
L 291.23981 106.847265 
L 291.677442 99.268488 
L 292.115074 87.65789 
L 292.990338 61.640591 
L 293.077865 61.284603 
L 293.165391 61.470968 
L 293.42797 64.089233 
L 293.778076 67.285345 
L 293.865603 67.38685 
L 294.040655 66.627748 
L 294.828393 60.06925 
L 294.91592 60.147805 
L 295.178499 61.154124 
L 295.441078 62.073529 
L 295.528605 62.123686 
L 295.703658 61.703059 
L 295.966237 59.92955 
L 296.666448 54.574826 
L 296.929027 53.881039 
L 297.191607 53.787133 
L 297.716765 53.911908 
L 297.891818 53.682014 
L 298.154397 52.950662 
L 298.854609 50.682609 
L 299.029662 50.593013 
L 299.204715 50.744123 
L 299.8174 51.629448 
L 299.992452 51.534895 
L 300.255032 51.031315 
L 300.78019 49.910737 
L 301.04277 49.830895 
L 301.392875 50.14798 
L 301.742981 50.418589 
L 302.00556 50.368177 
L 302.880825 49.872268 
L 303.931142 50.059176 
L 304.718879 49.866244 
L 305.944249 49.921331 
L 306.994567 49.827951 
L 307.607252 49.702689 
L 308.219937 49.331871 
L 308.832622 48.665089 
L 309.707886 47.669313 
L 310.057992 47.608937 
L 310.320571 47.82635 
L 310.670677 48.522044 
L 311.545941 50.544084 
L 311.983573 50.817983 
L 313.03389 51.31267 
L 313.646575 51.155135 
L 314.696892 51.372761 
L 315.309577 51.094272 
L 316.534947 51.035593 
L 317.147632 50.755826 
L 318.197949 50.517759 
L 318.985687 50.225354 
L 320.473636 50.098116 
L 321.173848 49.970322 
L 324.149746 49.908928 
L 326.863066 49.58265 
L 328.438541 49.159469 
L 329.051226 49.273022 
L 329.838964 49.675487 
L 331.326913 50.454746 
L 332.37723 50.667186 
L 333.86518 50.703015 
L 337.54129 50.332048 
L 339.204292 50.146483 
L 346.206406 49.685996 
L 347.519302 49.62946 
L 348.744672 49.826982 
L 351.282939 50.324977 
L 353.033467 50.376585 
L 357.672368 50.131297 
L 361.78611 50.019345 
L 368.175539 49.965347 
L 371.32649 50.197939 
L 374.03981 50.147665 
L 378.853763 50.033073 
L 389.619514 50.089714 
L 393.995835 50.070926 
L 401.085476 49.996867 
L 408.700275 50.060063 
L 416.752706 50.00917 
L 427.080825 50.039241 
L 429.619091 50.044843 
L 429.619091 50.044843 
" style="fill:none;stroke:#2ca02c;stroke-linecap:square;stroke-width:1.5;"/>
   </g>
   <g id="line2d_28">
    <path clip-path="url(#p75121bc452)" d="M 79.600909 262.518589 
L 80.038541 262.445778 
L 80.301121 262.207486 
L 80.738753 261.436609 
L 81.52649 260.034406 
L 82.489281 258.564833 
L 84.589915 254.780056 
L 84.940021 254.564747 
L 85.46518 254.572973 
L 86.077865 254.504382 
L 87.040655 254.292664 
L 90.016554 254.20714 
L 92.117188 254.015656 
L 94.655455 253.985178 
L 97.106195 254.16778 
L 104.283362 254.413499 
L 116.449535 254.139797 
L 127.477865 254.286122 
L 143.145095 254.224435 
L 159.162431 254.230564 
L 193.910423 254.035215 
L 194.435581 253.744814 
L 194.873214 253.233649 
L 195.310846 252.375363 
L 195.923531 250.659559 
L 196.536216 248.302734 
L 197.148901 244.77424 
L 198.986956 232.055511 
L 199.337061 226.61989 
L 199.774693 215.595097 
L 200.474905 194.87555 
L 200.649958 193.3388 
L 200.737484 193.277275 
L 200.912537 194.099082 
L 201.262643 195.983849 
L 201.350169 195.876371 
L 201.525222 194.653567 
L 202.400486 185.362903 
L 202.575539 186.095287 
L 203.188224 189.895689 
L 203.275751 189.887599 
L 203.450803 189.347526 
L 204.151015 186.052624 
L 204.326068 186.138498 
L 204.676173 187.119419 
L 205.026279 187.834498 
L 205.201332 187.801277 
L 205.463911 187.371776 
L 205.901543 186.64084 
L 206.164123 186.615452 
L 207.039387 187.133881 
L 208.17723 186.809596 
L 208.877442 186.906542 
L 210.190338 186.830918 
L 211.415708 186.78033 
L 212.728605 186.630169 
L 213.866448 186.449893 
L 214.479133 186.572893 
L 215.967082 187.02313 
L 220.69351 187.032557 
L 222.356512 186.400708 
L 223.144249 186.529525 
L 224.10704 186.627949 
L 228.133256 186.66433 
L 231.984419 186.641123 
L 233.647421 186.727933 
L 236.185687 186.894938 
L 239.249112 187.003213 
L 240.737061 187.074824 
L 241.699852 186.876749 
L 242.662643 186.770836 
L 251.327759 186.689807 
L 263.318879 186.871544 
L 269.533256 186.714597 
L 272.509154 186.60115 
L 273.121839 186.332633 
L 273.559471 185.879176 
L 273.997104 185.085009 
L 274.609789 183.458646 
L 275.222474 181.315556 
L 275.747632 178.61892 
L 277.498161 167.324984 
L 277.848266 163.289075 
L 278.198372 157.007701 
L 278.636004 144.501507 
L 279.248689 126.890794 
L 279.423742 125.618869 
L 279.511268 125.663204 
L 279.773848 127.21609 
L 280.036427 128.236548 
L 280.123953 128.013433 
L 280.299006 126.587254 
L 280.999218 118.174076 
L 281.086744 118.033475 
L 281.174271 118.166866 
L 281.43685 119.740428 
L 281.874482 122.398451 
L 281.962008 122.471889 
L 282.137061 122.078934 
L 282.924799 118.712104 
L 283.099852 118.922189 
L 283.800063 120.482708 
L 283.975116 120.361853 
L 284.762854 119.217967 
L 285.025433 119.352326 
L 285.550592 119.75127 
L 285.813171 119.713376 
L 286.688436 119.354796 
L 287.826279 119.418682 
L 288.614017 119.343222 
L 289.576808 119.281426 
L 290.539598 118.954551 
L 290.97723 118.578278 
L 291.414863 117.904062 
L 291.940021 116.60633 
L 292.377653 114.972127 
L 292.815285 112.524672 
L 294.128182 104.115279 
L 294.65334 101.169033 
L 295.003446 97.932144 
L 295.441078 91.337352 
L 295.87871 80.283376 
L 296.578922 60.110334 
L 296.753975 58.720237 
L 296.841501 58.709718 
L 297.016554 59.587514 
L 297.36666 61.470286 
L 297.454186 61.356831 
L 297.629239 60.127026 
L 298.504503 50.734144 
L 298.679556 51.451204 
L 299.292241 55.287979 
L 299.379767 55.278771 
L 299.55482 54.716806 
L 300.255032 51.102375 
L 300.430085 51.093433 
L 300.692664 51.67966 
L 301.04277 52.514032 
L 301.217822 52.615095 
L 301.392875 52.472407 
L 302.093087 51.453055 
L 302.355666 51.558814 
L 303.055877 52.12581 
L 303.405983 51.989163 
L 304.018668 51.706683 
L 304.543827 51.809549 
L 305.156512 51.859001 
L 306.294355 51.859261 
L 307.519725 51.810455 
L 309.007674 51.687587 
L 310.408097 51.481369 
L 311.020782 51.633672 
L 312.333679 52.102014 
L 316.622474 52.366094 
L 317.147632 52.125927 
L 318.022896 51.683988 
L 318.460529 51.736007 
L 319.510846 52.003318 
L 320.38611 51.74006 
L 321.173848 51.652403 
L 325.200063 51.724111 
L 327.650803 51.72346 
L 329.663911 51.755056 
L 333.252495 52.02285 
L 335.265603 52.142804 
L 336.753552 52.217757 
L 339.204292 52.041022 
L 344.89351 51.787969 
L 349.269831 51.846409 
L 352.858414 51.964003 
L 355.396681 51.989801 
L 357.409789 52.042974 
L 370.888858 51.949123 
L 373.689704 51.929893 
L 376.315497 51.948391 
L 383.58019 51.986556 
L 390.582304 51.945734 
L 395.921416 51.926707 
L 429.619091 51.982357 
L 429.619091 51.982357 
" style="fill:none;stroke:#d62728;stroke-linecap:square;stroke-width:1.5;"/>
   </g>
   <g id="line2d_29">
    <path clip-path="url(#p75121bc452)" d="M 79.600909 262.518589 
L 80.038541 262.445778 
L 80.301121 262.207486 
L 80.738753 261.436609 
L 81.52649 260.034406 
L 82.489281 258.564833 
L 84.589915 254.780056 
L 84.940021 254.564747 
L 85.46518 254.572973 
L 86.077865 254.504382 
L 87.040655 254.292664 
L 90.016554 254.20714 
L 92.117188 254.015656 
L 94.655455 253.985178 
L 97.106195 254.16778 
L 104.283362 254.413499 
L 116.449535 254.139797 
L 127.477865 254.286122 
L 143.145095 254.224435 
L 159.162431 254.230564 
L 193.910423 254.035215 
L 194.435581 253.744814 
L 194.873214 253.233649 
L 195.310846 252.375363 
L 195.923531 250.659559 
L 196.536216 248.302734 
L 197.148901 244.77424 
L 198.986956 232.055511 
L 199.337061 226.61989 
L 199.774693 215.595097 
L 200.474905 194.87555 
L 200.649958 193.3388 
L 200.737484 193.277275 
L 200.912537 194.099082 
L 201.262643 195.983849 
L 201.350169 195.876371 
L 201.525222 194.653567 
L 202.400486 185.362903 
L 202.575539 186.095287 
L 203.188224 189.895689 
L 203.275751 189.887599 
L 203.450803 189.347526 
L 204.151015 186.052624 
L 204.326068 186.138498 
L 204.676173 187.119419 
L 205.026279 187.834498 
L 205.201332 187.801277 
L 205.463911 187.371776 
L 205.901543 186.64084 
L 206.164123 186.615452 
L 207.039387 187.133881 
L 208.17723 186.809596 
L 208.877442 186.906542 
L 210.190338 186.830918 
L 211.415708 186.78033 
L 212.728605 186.630169 
L 213.866448 186.449893 
L 214.479133 186.572893 
L 215.967082 187.02313 
L 220.69351 187.032557 
L 222.356512 186.400708 
L 223.144249 186.529525 
L 224.10704 186.627949 
L 228.133256 186.66433 
L 231.984419 186.641123 
L 233.647421 186.727933 
L 236.185687 186.894938 
L 239.249112 187.003213 
L 240.737061 187.074824 
L 241.699852 186.876749 
L 242.662643 186.770836 
L 251.327759 186.689807 
L 263.318879 186.871544 
L 269.533256 186.714597 
L 272.509154 186.60115 
L 273.121839 186.332633 
L 273.559471 185.879176 
L 273.997104 185.085009 
L 274.609789 183.458646 
L 275.222474 181.315556 
L 275.747632 178.61892 
L 277.498161 167.324984 
L 277.848266 163.289075 
L 278.198372 157.007701 
L 278.636004 144.501507 
L 279.248689 126.890794 
L 279.423742 125.618869 
L 279.511268 125.663204 
L 279.773848 127.21609 
L 280.036427 128.236548 
L 280.123953 128.013433 
L 280.299006 126.587254 
L 280.999218 118.174076 
L 281.086744 118.033475 
L 281.174271 118.166866 
L 281.43685 119.740428 
L 281.874482 122.398451 
L 281.962008 122.471889 
L 282.137061 122.078934 
L 282.924799 118.712104 
L 283.099852 118.922189 
L 283.800063 120.482708 
L 283.975116 120.361853 
L 284.762854 119.217967 
L 285.025433 119.352326 
L 285.550592 119.75127 
L 285.813171 119.713376 
L 286.688436 119.354796 
L 287.826279 119.418682 
L 288.614017 119.343222 
L 289.576808 119.281426 
L 290.539598 118.954551 
L 290.97723 118.578278 
L 291.414863 117.904062 
L 291.940021 116.60633 
L 292.377653 114.972127 
L 292.815285 112.524672 
L 294.128182 104.115279 
L 294.65334 101.169033 
L 295.003446 97.932144 
L 295.441078 91.337352 
L 295.87871 80.283376 
L 296.578922 60.110334 
L 296.753975 58.720237 
L 296.841501 58.709718 
L 297.016554 59.587514 
L 297.36666 61.470286 
L 297.454186 61.356831 
L 297.629239 60.127026 
L 298.504503 50.734144 
L 298.679556 51.451204 
L 299.292241 55.287979 
L 299.379767 55.278771 
L 299.55482 54.716806 
L 300.255032 51.102375 
L 300.430085 51.093433 
L 300.692664 51.67966 
L 301.04277 52.514032 
L 301.217822 52.615095 
L 301.392875 52.472407 
L 302.093087 51.453055 
L 302.355666 51.558814 
L 303.055877 52.12581 
L 303.405983 51.989163 
L 304.018668 51.706683 
L 304.543827 51.809549 
L 305.156512 51.859001 
L 306.294355 51.859261 
L 307.519725 51.810455 
L 309.007674 51.687587 
L 310.408097 51.481369 
L 311.020782 51.633672 
L 312.333679 52.102014 
L 316.622474 52.366094 
L 317.147632 52.125927 
L 318.022896 51.683988 
L 318.460529 51.736007 
L 319.510846 52.003318 
L 320.38611 51.74006 
L 321.173848 51.652403 
L 325.200063 51.724111 
L 327.650803 51.72346 
L 329.663911 51.755056 
L 333.252495 52.02285 
L 335.265603 52.142804 
L 336.753552 52.217757 
L 339.204292 52.041022 
L 344.89351 51.787969 
L 349.269831 51.846409 
L 352.858414 51.964003 
L 355.396681 51.989801 
L 357.409789 52.042974 
L 370.888858 51.949123 
L 373.689704 51.929893 
L 376.315497 51.948391 
L 383.58019 51.986556 
L 390.582304 51.945734 
L 395.921416 51.926707 
L 429.619091 51.982357 
L 429.619091 51.982357 
" style="fill:none;stroke:#9467bd;stroke-linecap:square;stroke-width:1.5;"/>
   </g>
   <g id="line2d_30">
    <path clip-path="url(#p75121bc452)" d="M 79.600909 262.518589 
L 80.5637 262.423739 
L 82.576808 261.526254 
L 85.115074 260.285181 
L 88.966237 259.889802 
L 96.143404 259.716845 
L 108.922262 259.858546 
L 150.759894 259.835073 
L 162.313383 259.773634 
L 168.26518 259.800695 
L 183.232199 259.793576 
L 192.422474 259.804323 
L 205.814017 259.771965 
L 209.490127 259.565463 
L 210.190338 259.313465 
L 210.715497 258.882614 
L 211.590761 257.761304 
L 212.378499 256.510491 
L 212.991184 255.033773 
L 213.866448 252.280218 
L 214.479133 249.649578 
L 215.004292 246.317434 
L 215.616977 240.829563 
L 217.279979 223.185835 
L 218.505349 206.696253 
L 219.030507 203.656794 
L 219.905772 199.785965 
L 220.69351 197.498361 
L 221.393721 196.08045 
L 222.268985 194.859597 
L 223.056723 194.112443 
L 224.019514 193.501876 
L 225.157357 193.060048 
L 226.645307 192.738075 
L 229.271099 192.269498 
L 230.146364 191.947713 
L 230.671522 191.955634 
L 231.196681 192.204537 
L 231.896892 192.560025 
L 232.509577 192.551199 
L 233.997526 192.462492 
L 239.511691 192.483845 
L 247.651649 192.500521 
L 248.964545 192.457006 
L 249.927336 192.236512 
L 250.627548 192.146657 
L 254.47871 192.403518 
L 257.542135 192.451322 
L 264.894355 192.404984 
L 267.257569 192.441911 
L 269.270677 192.47732 
L 272.421628 192.30676 
L 277.060529 192.391332 
L 284.587801 192.394785 
L 288.614017 192.124799 
L 289.139175 191.845673 
L 289.75186 191.230657 
L 291.327336 189.207168 
L 291.940021 187.809235 
L 292.815285 185.210841 
L 293.42797 182.74394 
L 293.953129 179.657164 
L 294.565814 174.412715 
L 296.228816 157.088739 
L 297.629239 138.704528 
L 298.241924 135.417761 
L 299.029662 132.096491 
L 299.8174 129.891471 
L 300.517611 128.536997 
L 301.392875 127.349853 
L 302.180613 126.624045 
L 303.23093 125.967088 
L 304.4563 125.484725 
L 306.206829 124.851333 
L 306.819514 124.365097 
L 307.519725 123.470698 
L 308.219937 122.229139 
L 308.745095 120.796307 
L 309.445307 118.06181 
L 310.233044 114.188353 
L 310.845729 110.043973 
L 311.983573 100.113369 
L 312.683784 92.998491 
L 313.296469 84.317451 
L 314.084207 73.519953 
L 314.521839 70.315941 
L 315.397104 66.02816 
L 316.097315 63.65308 
L 316.885053 61.783701 
L 317.672791 60.540405 
L 318.460529 59.63585 
L 319.423319 58.915714 
L 320.473636 58.412141 
L 321.786533 58.050094 
L 323.449535 57.828545 
L 325.112537 57.643803 
L 326.600486 57.120852 
L 327.038118 57.359224 
L 327.73833 57.794909 
L 328.088436 57.755242 
L 329.138753 57.435611 
L 330.101543 57.562961 
L 331.326913 57.704729 
L 335.353129 57.70958 
L 343.843192 57.693041 
L 345.243615 57.624155 
L 346.644038 57.425156 
L 348.044461 57.523756 
L 350.495201 57.515412 
L 354.871522 57.632975 
L 360.998372 57.601166 
L 363.449112 57.628314 
L 365.374693 57.624842 
L 367.387801 57.561143 
L 376.315497 57.581949 
L 386.731142 57.600602 
L 405.461797 57.577992 
L 413.864334 57.530938 
L 427.168351 57.563037 
L 429.619091 57.572864 
L 429.619091 57.572864 
" style="fill:none;stroke:#8c564b;stroke-linecap:square;stroke-width:1.5;"/>
   </g>
   <g id="line2d_31">
    <path clip-path="url(#p75121bc452)" d="M 79.600909 262.518589 
L 80.5637 262.423739 
L 82.576808 261.526254 
L 85.115074 260.285181 
L 88.966237 259.889802 
L 96.143404 259.716845 
L 108.922262 259.858546 
L 150.759894 259.835073 
L 162.313383 259.773634 
L 168.26518 259.800695 
L 183.232199 259.793576 
L 192.422474 259.804323 
L 205.814017 259.771965 
L 209.490127 259.565463 
L 210.190338 259.313465 
L 210.715497 258.882614 
L 211.590761 257.761304 
L 212.378499 256.510491 
L 212.991184 255.033773 
L 213.866448 252.280218 
L 214.479133 249.649578 
L 215.004292 246.317434 
L 215.616977 240.829563 
L 217.279979 223.185835 
L 218.505349 206.696253 
L 219.030507 203.656794 
L 219.905772 199.785965 
L 220.69351 197.498361 
L 221.393721 196.08045 
L 222.268985 194.859597 
L 223.056723 194.112443 
L 224.019514 193.501876 
L 225.157357 193.060048 
L 226.645307 192.738075 
L 229.271099 192.269498 
L 230.146364 191.947713 
L 230.671522 191.955634 
L 231.196681 192.204537 
L 231.896892 192.560025 
L 232.509577 192.551199 
L 233.997526 192.462492 
L 239.511691 192.483845 
L 247.651649 192.500521 
L 248.964545 192.457006 
L 249.927336 192.236512 
L 250.627548 192.146657 
L 254.47871 192.403518 
L 257.542135 192.451322 
L 264.894355 192.404984 
L 267.257569 192.441911 
L 269.270677 192.47732 
L 272.421628 192.30676 
L 277.060529 192.391332 
L 284.587801 192.394785 
L 288.614017 192.124799 
L 289.139175 191.845673 
L 289.75186 191.230657 
L 291.327336 189.207168 
L 291.940021 187.809235 
L 292.815285 185.210841 
L 293.42797 182.74394 
L 293.953129 179.657164 
L 294.565814 174.412715 
L 296.228816 157.088739 
L 297.629239 138.704528 
L 298.241924 135.417761 
L 299.029662 132.096491 
L 299.8174 129.891471 
L 300.517611 128.536997 
L 301.392875 127.349853 
L 302.180613 126.624045 
L 303.23093 125.967088 
L 304.4563 125.484725 
L 306.206829 124.851333 
L 306.819514 124.365097 
L 307.519725 123.470698 
L 308.219937 122.229139 
L 308.745095 120.796307 
L 309.445307 118.06181 
L 310.233044 114.188353 
L 310.845729 110.043973 
L 311.983573 100.113369 
L 312.683784 92.998491 
L 313.296469 84.317451 
L 314.084207 73.519953 
L 314.521839 70.315941 
L 315.397104 66.02816 
L 316.097315 63.65308 
L 316.885053 61.783701 
L 317.672791 60.540405 
L 318.460529 59.63585 
L 319.423319 58.915714 
L 320.473636 58.412141 
L 321.786533 58.050094 
L 323.449535 57.828545 
L 325.112537 57.643803 
L 326.600486 57.120852 
L 327.038118 57.359224 
L 327.73833 57.794909 
L 328.088436 57.755242 
L 329.138753 57.435611 
L 330.101543 57.562961 
L 331.326913 57.704729 
L 335.353129 57.70958 
L 343.843192 57.693041 
L 345.243615 57.624155 
L 346.644038 57.425156 
L 348.044461 57.523756 
L 350.495201 57.515412 
L 354.871522 57.632975 
L 360.998372 57.601166 
L 363.449112 57.628314 
L 365.374693 57.624842 
L 367.387801 57.561143 
L 376.315497 57.581949 
L 386.731142 57.600602 
L 405.461797 57.577992 
L 413.864334 57.530938 
L 427.168351 57.563037 
L 429.619091 57.572864 
L 429.619091 57.572864 
" style="fill:none;stroke:#e377c2;stroke-linecap:square;stroke-width:1.5;"/>
   </g>
   <g id="patch_3">
    <path d="M 62.1 273.264964 
L 62.1 36.844714 
" style="fill:none;stroke:#808080;stroke-linecap:square;stroke-linejoin:miter;stroke-width:0.5;"/>
   </g>
   <g id="patch_4">
    <path d="M 62.1 273.264964 
L 447.12 273.264964 
" style="fill:none;stroke:#808080;stroke-linecap:square;stroke-linejoin:miter;stroke-width:0.5;"/>
   </g>
   <g id="legend_1">
    <g id="patch_5">
     <path d="M 365.605171 269.264964 
L 441.52 269.264964 
Q 443.12 269.264964 443.12 267.664964 
L 443.12 190.416744 
Q 443.12 188.816744 441.52 188.816744 
L 365.605171 188.816744 
Q 364.005171 188.816744 364.005171 190.416744 
L 364.005171 267.664964 
Q 364.005171 269.264964 365.605171 269.264964 
z
" style="fill:#ffffff;opacity:0.8;stroke:#cccccc;stroke-linejoin:miter;"/>
    </g>
    <g id="line2d_32">
     <path d="M 367.205171 194.816744 
L 383.205171 194.816744 
" style="fill:none;stroke:#1f77b4;stroke-linecap:square;stroke-width:1.5;"/>
    </g>
    <g id="line2d_33"/>
    <g id="text_20">
     <!-- B01TX1 -->
     <defs>
      <path d="M 5.203125 68 
L 5.203125 65.40625 
C 12.09375 65.40625 13.203125 65.40625 13.203125 60.9375 
L 13.203125 7.0625 
C 13.203125 2.59375 12.09375 2.59375 5.203125 2.59375 
L 5.203125 0 
L 39.59375 0 
C 52.40625 0 60.703125 9.109375 60.703125 18.1875 
C 60.703125 27.203125 52.5 34.890625 41.796875 34.890625 
C 51.40625 36.8125 58.09375 43.296875 58.09375 51 
C 58.09375 59.40625 49.90625 68 37 68 
z
M 19.5 36 
L 19.5 61.515625 
C 19.5 64.921875 19.703125 65.40625 23.703125 65.40625 
L 36.5 65.40625 
C 46.40625 65.40625 50.796875 57.40625 50.796875 51.203125 
C 50.796875 43.609375 44.703125 36 33.90625 36 
z
M 23.703125 2.59375 
C 19.703125 2.59375 19.5 3.078125 19.5 6.453125 
L 19.5 34.40625 
L 38 34.40625 
C 48.296875 34.40625 53.296875 25.390625 53.296875 18.15625 
C 53.296875 10.921875 47.59375 2.59375 36.703125 2.59375 
z
" id="CMR17-66"/>
      <path d="M 62.203125 67.59375 
L 4.5 67.59375 
L 2.796875 45.59375 
L 4.59375 45.59375 
C 5.90625 62.125 7.296875 65 22.703125 65 
C 24.5 65 27.40625 65 28.203125 64.90625 
C 30.09375 64.609375 30.09375 63.40625 30.09375 61.125 
L 30.09375 7.171875 
C 30.09375 3.59375 29.796875 2.5 21.5 2.5 
L 18.703125 2.5 
L 18.703125 0 
C 23.5 0 28.5 0 33.40625 0 
C 38.296875 0 43.296875 0 48.09375 0 
L 48.09375 2.5 
L 45.296875 2.5 
C 37 2.5 36.703125 3.59375 36.703125 7.171875 
L 36.703125 61.125 
C 36.703125 63.3125 36.703125 64.515625 38.5 64.90625 
C 39.296875 65 42.203125 65 44 65 
C 59.296875 65 60.796875 62.125 62.09375 45.59375 
L 63.90625 45.59375 
z
" id="CMR17-84"/>
      <path d="M 36.5 37.46875 
L 51.296875 58.640625 
C 52.796875 60.71875 55.796875 65 64 65 
L 64 67.6875 
C 61.703125 67.484375 57.90625 67.484375 55.5 67.484375 
C 52.203125 67.484375 48.09375 67.484375 45.59375 67.6875 
L 45.59375 65.09375 
C 48.796875 64.796875 49.59375 62.8125 49.59375 61.21875 
C 49.59375 60.046875 49.09375 59.25 48.40625 58.25 
L 35.203125 39.265625 
L 20.40625 60.734375 
C 19.703125 61.8125 19.59375 62.109375 19.59375 62.40625 
C 19.59375 63.3125 20.703125 65 24 65 
L 24 67.484375 
C 20.796875 67.484375 15.90625 67.484375 12.59375 67.484375 
C 10 67.484375 5 67.484375 2.59375 67.6875 
L 2.59375 65 
C 8.09375 65 9.90625 64.8125 12.09375 61.734375 
L 31.40625 33.796875 
L 14 8.578125 
C 9.703125 2.390625 3.203125 2.390625 1.296875 2.390625 
L 1.296875 -0.203125 
C 3.59375 0 7.40625 0 9.796875 0 
C 12.5 0 17.203125 0 19.703125 -0.203125 
L 19.703125 2.390625 
C 16.59375 2.6875 15.703125 4.671875 15.703125 6.265625 
C 15.703125 7.546875 16.203125 8.25 16.703125 8.9375 
L 32.703125 32 
L 50.09375 6.59375 
C 50.90625 5.5 50.90625 5.203125 50.90625 4.90625 
C 50.90625 4.109375 50 2.390625 46.5 2.390625 
L 46.5 0 
C 49.703125 0 54.59375 0 57.90625 0 
C 60.5 0 65.5 0 67.90625 -0.203125 
L 67.90625 2.390625 
C 61.5 2.390625 60.5 2.875 58.5 5.671875 
z
" id="CMR17-88"/>
     </defs>
     <g transform="translate(389.605171 197.616744)scale(0.08 -0.08)">
      <use transform="scale(0.996264)" xlink:href="#CMR17-66"/>
      <use transform="translate(65.188754 0)scale(0.996264)" xlink:href="#CMR17-48"/>
      <use transform="translate(110.879232 0)scale(0.996264)" xlink:href="#CMR17-49"/>
      <use transform="translate(156.569709 0)scale(0.996264)" xlink:href="#CMR17-84"/>
      <use transform="translate(223.079589 0)scale(0.996264)" xlink:href="#CMR17-88"/>
      <use transform="translate(292.152019 0)scale(0.996264)" xlink:href="#CMR17-49"/>
     </g>
    </g>
    <g id="line2d_34">
     <path d="M 367.205171 205.96649 
L 383.205171 205.96649 
" style="fill:none;stroke:#ff7f0e;stroke-linecap:square;stroke-width:1.5;"/>
    </g>
    <g id="line2d_35"/>
    <g id="text_21">
     <!-- B01TX2 -->
     <g transform="translate(389.605171 208.76649)scale(0.08 -0.08)">
      <use transform="scale(0.996264)" xlink:href="#CMR17-66"/>
      <use transform="translate(65.188754 0)scale(0.996264)" xlink:href="#CMR17-48"/>
      <use transform="translate(110.879232 0)scale(0.996264)" xlink:href="#CMR17-49"/>
      <use transform="translate(156.569709 0)scale(0.996264)" xlink:href="#CMR17-84"/>
      <use transform="translate(223.079589 0)scale(0.996264)" xlink:href="#CMR17-88"/>
      <use transform="translate(292.152019 0)scale(0.996264)" xlink:href="#CMR17-50"/>
     </g>
    </g>
    <g id="line2d_36">
     <path d="M 367.205171 217.116236 
L 383.205171 217.116236 
" style="fill:none;stroke:#2ca02c;stroke-linecap:square;stroke-width:1.5;"/>
    </g>
    <g id="line2d_37"/>
    <g id="text_22">
     <!-- B1 -->
     <g transform="translate(389.605171 219.916236)scale(0.08 -0.08)">
      <use transform="scale(0.996264)" xlink:href="#CMR17-66"/>
      <use transform="translate(65.188754 0)scale(0.996264)" xlink:href="#CMR17-49"/>
     </g>
    </g>
    <g id="line2d_38">
     <path d="M 367.205171 228.265981 
L 383.205171 228.265981 
" style="fill:none;stroke:#d62728;stroke-linecap:square;stroke-width:1.5;"/>
    </g>
    <g id="line2d_39"/>
    <g id="text_23">
     <!-- B2 -->
     <g transform="translate(389.605171 231.065981)scale(0.08 -0.08)">
      <use transform="scale(0.996264)" xlink:href="#CMR17-66"/>
      <use transform="translate(65.188754 0)scale(0.996264)" xlink:href="#CMR17-50"/>
     </g>
    </g>
    <g id="line2d_40">
     <path d="M 367.205171 239.415727 
L 383.205171 239.415727 
" style="fill:none;stroke:#9467bd;stroke-linecap:square;stroke-width:1.5;"/>
    </g>
    <g id="line2d_41"/>
    <g id="text_24">
     <!-- B3 -->
     <g transform="translate(389.605171 242.215727)scale(0.08 -0.08)">
      <use transform="scale(0.996264)" xlink:href="#CMR17-66"/>
      <use transform="translate(65.188754 0)scale(0.996264)" xlink:href="#CMR17-51"/>
     </g>
    </g>
    <g id="line2d_42">
     <path d="M 367.205171 250.565473 
L 383.205171 250.565473 
" style="fill:none;stroke:#8c564b;stroke-linecap:square;stroke-width:1.5;"/>
    </g>
    <g id="line2d_43"/>
    <g id="text_25">
     <!-- B03|X0RX -->
     <defs>
      <path d="M 92.796875 26 
L 92.796875 27.59375 
L -1.203125 27.59375 
L -1.203125 26 
z
" id="CMR17-124"/>
      <path d="M 39.203125 33.53125 
C 48.703125 35.4375 56.703125 41.8125 56.703125 49.78125 
C 56.703125 59.140625 46.09375 67.59375 32.09375 67.59375 
L 5.203125 67.59375 
L 5.203125 65 
C 12.09375 65 13.203125 65 13.203125 60.515625 
L 13.203125 6.484375 
C 13.203125 2 12.09375 2 5.203125 2 
L 5.203125 -0.40625 
C 8.09375 -0.40625 13.296875 -0.40625 16.40625 -0.40625 
C 19.5 -0.40625 24.703125 -0.40625 27.59375 -0.40625 
L 27.59375 2 
C 20.703125 2 19.59375 2 19.59375 6.515625 
L 19.59375 33 
L 31.296875 33 
C 37 33 40.203125 30.6875 41.59375 29.390625 
C 45.59375 25.5 45.59375 22.796875 45.59375 16 
C 45.59375 9.296875 45.59375 5.890625 48.59375 2.5 
C 52.40625 -1.59375 57.5 -2 59.703125 -2 
C 67.09375 -2 68.203125 6.1875 68.203125 7.859375 
C 68.203125 8.4375 68.203125 9.140625 67.296875 9.140625 
C 66.5 9.140625 66.40625 8.546875 66.40625 8.15625 
C 65.90625 1.75 63 -0.40625 59.90625 -0.40625 
C 54.40625 -0.40625 53.796875 5.859375 53.203125 11.9375 
C 52.90625 14.03125 52.703125 15.515625 52.5 17.703125 
C 51.90625 22.6875 51.09375 29.953125 39.203125 33.53125 
z
M 31 34.59375 
L 19.59375 34.59375 
L 19.59375 61.140625 
C 19.59375 64.515625 19.796875 65 23.796875 65 
L 31.09375 65 
C 39.40625 65 49.09375 62.140625 49.09375 49.84375 
C 49.09375 37.0625 38.5 34.59375 31 34.59375 
z
" id="CMR17-82"/>
     </defs>
     <g transform="translate(389.605171 253.365473)scale(0.08 -0.08)">
      <use transform="scale(0.996264)" xlink:href="#CMR17-66"/>
      <use transform="translate(65.188754 0)scale(0.996264)" xlink:href="#CMR17-48"/>
      <use transform="translate(110.879232 0)scale(0.996264)" xlink:href="#CMR17-51"/>
      <use transform="translate(156.569709 0)scale(0.996264)" xlink:href="#CMR17-124"/>
      <use transform="translate(247.950754 0)scale(0.996264)" xlink:href="#CMR17-88"/>
      <use transform="translate(317.023184 0)scale(0.996264)" xlink:href="#CMR17-48"/>
      <use transform="translate(362.713661 0)scale(0.996264)" xlink:href="#CMR17-82"/>
      <use transform="translate(430.504763 0)scale(0.996264)" xlink:href="#CMR17-88"/>
     </g>
    </g>
    <g id="line2d_44">
     <path d="M 367.205171 261.715218 
L 383.205171 261.715218 
" style="fill:none;stroke:#e377c2;stroke-linecap:square;stroke-width:1.5;"/>
    </g>
    <g id="line2d_45"/>
    <g id="text_26">
     <!-- B03|X0RX2 -->
     <g transform="translate(389.605171 264.515218)scale(0.08 -0.08)">
      <use transform="scale(0.996264)" xlink:href="#CMR17-66"/>
      <use transform="translate(65.188754 0)scale(0.996264)" xlink:href="#CMR17-48"/>
      <use transform="translate(110.879232 0)scale(0.996264)" xlink:href="#CMR17-51"/>
      <use transform="translate(156.569709 0)scale(0.996264)" xlink:href="#CMR17-124"/>
      <use transform="translate(247.950754 0)scale(0.996264)" xlink:href="#CMR17-88"/>
      <use transform="translate(317.023184 0)scale(0.996264)" xlink:href="#CMR17-48"/>
      <use transform="translate(362.713661 0)scale(0.996264)" xlink:href="#CMR17-82"/>
      <use transform="translate(430.504763 0)scale(0.996264)" xlink:href="#CMR17-88"/>
      <use transform="translate(499.577193 0)scale(0.996264)" xlink:href="#CMR17-50"/>
     </g>
    </g>
   </g>
  </g>
 </g>
 <defs>
  <clipPath id="p75121bc452">
   <rect height="236.42025" width="385.02" x="62.1" y="36.844714"/>
  </clipPath>
 </defs>
</svg>
